<?xml version="1.0" standalone="no"?>
<!DOCTYPE svg PUBLIC "-//W3C//DTD SVG 20010904//EN"
 "http://www.w3.org/TR/2001/REC-SVG-20010904/DTD/svg10.dtd">
<svg version="1.0" xmlns="http://www.w3.org/2000/svg"
 width="1080.000000pt" height="1080.000000pt" viewBox="0 0 1080.000000 1080.000000"
 preserveAspectRatio="xMidYMid meet">
<metadata>
Created by potrace 1.14, written by Peter Selinger 2001-2017
</metadata>
<g transform="translate(0.000000,1080.000000) scale(0.100000,-0.100000)"
fill="#000000" stroke="none">
<path d="M0 5400 l0 -5400 170 0 170 0 0 462 0 461 101 -6 c56 -4 104 -8 106
-11 3 -2 0 -145 -6 -318 -6 -172 -11 -375 -11 -450 l0 -138 24 0 c22 0 25 5
30 58 3 31 8 224 11 427 3 204 8 382 11 397 l6 28 180 0 181 0 -7 -377 c-3
-208 -9 -413 -12 -456 l-7 -77 26 0 c23 0 26 5 31 43 12 86 26 439 26 648 0
247 -8 229 95 229 106 0 154 57 201 238 27 106 30 146 15 287 -14 140 -37 240
-68 296 -26 50 -160 218 -323 409 -140 164 -172 246 -255 653 -56 276 -91 509
-105 692 -10 139 -28 845 -36 1400 -20 1433 -26 1743 -39 1965 -8 140 -21 295
-30 344 -16 91 -73 237 -119 307 l-26 39 0 1625 0 1625 -170 0 -170 0 0 -5400z"/>
<path d="M5115 9464 c-200 -36 -349 -91 -439 -163 -21 -17 -42 -31 -46 -31 -4
0 -33 13 -66 29 -160 79 -555 106 -759 53 -307 -81 -592 -286 -774 -557 -77
-116 -197 -347 -207 -399 -5 -31 -8 -32 -79 -43 -87 -14 -219 -66 -300 -118
-77 -49 -342 -301 -410 -390 -100 -131 -93 -37 -84 -1116 8 -983 24 -2575 38
-3771 5 -440 4 -720 -2 -760 -5 -35 -10 -155 -10 -268 -1 -196 0 -209 26 -293
15 -49 36 -106 47 -127 19 -38 20 -61 20 -775 l0 -735 24 0 25 0 3 128 c2 70
5 377 6 681 1 305 5 557 7 560 10 9 57 -24 65 -45 12 -31 78 -92 125 -116 22
-12 57 -21 78 -22 l39 -1 -7 -592 -7 -593 30 0 30 0 3 579 c2 319 7 582 10
585 9 9 234 -84 433 -179 l59 -29 -7 -478 -8 -478 31 0 31 0 1 148 c1 81 4
286 8 457 l6 310 209 3 209 2 -7 -247 c-3 -137 -9 -344 -13 -460 l-6 -213 30
0 30 0 6 307 c4 170 10 377 13 461 l7 152 753 0 754 0 6 -26 c4 -15 7 -124 8
-243 1 -185 -1 -216 -14 -218 -78 -10 -95 -17 -136 -55 -71 -65 -116 -176
-138 -341 -5 -35 -4 -37 25 -37 26 0 29 3 29 33 0 52 37 183 66 237 39 71 72
99 127 106 l47 7 0 -86 c0 -47 3 -92 6 -101 9 -23 152 -92 250 -121 287 -83
740 -99 938 -34 100 34 117 53 121 134 4 105 6 115 18 115 17 0 50 -36 70 -76
13 -24 37 -162 37 -206 0 -5 12 -8 26 -8 l26 0 -7 78 c-3 42 -10 93 -15 112
-16 59 -65 127 -110 150 -32 17 -39 25 -36 43 3 12 8 87 11 167 3 80 8 181 11
226 l6 80 237 2 c130 1 305 -1 389 -4 l153 -6 -3 -424 -3 -424 26 0 c25 0 26
2 36 99 12 106 36 174 74 211 30 29 97 59 129 60 14 0 38 7 54 15 l29 15 -6
-75 -7 -75 54 -36 c60 -40 270 -117 362 -133 109 -19 455 -32 546 -20 92 12
246 58 294 88 27 17 33 28 44 88 17 91 20 97 47 78 27 -19 43 -72 43 -141 0
-28 3 -79 6 -113 6 -56 9 -61 30 -61 24 0 24 2 24 98 0 175 -22 241 -91 277
l-26 14 14 103 c8 57 17 171 21 253 l7 150 113 3 113 4 -6 -64 c-3 -34 -8 -85
-10 -113 -3 -27 -10 -167 -15 -310 -5 -143 -12 -295 -16 -338 l-6 -77 29 0 30
0 12 222 c6 123 16 317 22 432 6 115 15 220 20 233 5 13 17 23 28 23 11 0 31
10 45 22 30 27 38 80 57 361 14 206 10 259 -26 366 -28 86 -73 139 -155 184
-129 70 -209 110 -278 138 -89 35 -88 35 -74 51 25 31 44 131 38 195 -8 73
-56 168 -196 388 -114 180 -155 230 -268 332 -175 159 -261 253 -295 323 -46
97 -135 210 -274 348 -67 67 -123 130 -123 140 0 9 -18 47 -39 84 l-39 67 -5
138 c-3 76 -10 341 -16 588 -6 248 -16 497 -21 554 -6 58 -10 211 -10 340 0
283 -13 543 -40 815 -18 174 -47 547 -65 841 -9 139 -33 402 -64 712 -27 266
-31 287 -60 350 -39 82 -87 143 -148 184 -45 31 -147 76 -192 84 -14 2 -29 11
-33 19 -4 8 -23 24 -41 35 -24 15 -37 33 -46 63 -32 107 -134 252 -254 365
-111 103 -318 205 -450 220 -35 4 -57 14 -81 37 -50 47 -73 62 -160 105 -110
54 -186 78 -322 101 -138 24 -339 25 -459 4z m220 -1421 c14 -21 46 -103 71
-183 91 -291 104 -319 231 -493 48 -65 169 -162 250 -199 37 -17 75 -37 84
-45 25 -21 129 -28 163 -10 27 14 32 14 65 -3 20 -10 83 -37 140 -59 111 -44
146 -63 226 -122 28 -20 67 -45 89 -54 33 -16 41 -17 60 -5 54 35 93 50 131
50 59 0 124 -37 160 -90 26 -39 30 -54 30 -115 0 -91 -24 -138 -90 -179 -39
-24 -61 -30 -107 -31 -86 0 -94 -13 -78 -112 18 -112 16 -302 -5 -393 -25
-107 -83 -244 -146 -346 -65 -107 -247 -294 -359 -371 -446 -305 -1027 -411
-1601 -293 -649 134 -1155 546 -1286 1048 -19 74 -26 132 -30 244 -6 153 -11
169 -51 149 -65 -33 -169 -40 -235 -17 -184 66 -250 274 -131 416 39 46 119
95 181 109 62 15 146 7 169 -17 13 -13 23 -13 66 -4 69 17 103 15 194 -8 103
-27 437 -38 597 -21 124 14 265 47 352 84 60 25 60 25 68 5 6 -18 14 -20 50
-16 92 11 145 64 62 62 -22 0 -53 -4 -68 -8 -24 -7 -18 1 34 50 69 66 133 152
174 234 34 66 120 295 182 480 25 74 54 158 64 186 l20 50 62 0 c51 0 72 6
117 31 30 17 58 31 62 32 4 0 19 -16 33 -36z m745 -2956 c0 -16 -76 -264 -100
-326 -36 -93 -50 -102 -112 -70 -24 12 -106 48 -183 80 -146 60 -145 59 -54
74 164 26 409 159 409 223 0 6 6 13 13 15 14 6 27 8 27 4z m-1850 -42 c14 -8
21 -14 15 -14 -5 0 -21 6 -35 14 -14 8 -20 14 -15 14 6 0 21 -6 35 -14z m-366
-40 c-4 -8 -8 -15 -10 -15 -2 0 -4 7 -4 15 0 8 4 15 10 15 5 0 7 -7 4 -15z
m58 5 c0 -5 1 -16 2 -22 1 -7 10 -15 20 -18 17 -5 16 -7 -7 -17 -23 -11 -25
-10 -22 13 3 28 -10 32 -24 7 -8 -15 -10 -12 -8 14 1 24 7 33 20 33 9 0 18 -4
19 -10z m2348 -12 c0 -6 -6 -5 -15 2 -8 7 -15 14 -15 16 0 2 7 1 15 -2 8 -4
15 -11 15 -16z m234 -55 c195 -136 701 -598 746 -683 10 -19 7 -20 -65 -20
-41 0 -95 -5 -119 -12 -44 -12 -45 -11 -98 30 -91 70 -135 123 -204 247 -113
203 -177 291 -312 429 -84 85 -85 88 -43 66 24 -12 67 -38 95 -57z m-2715 0
c64 -87 106 -168 140 -268 77 -233 110 -529 77 -690 -19 -91 -70 -205 -129
-284 l-40 -54 -76 80 c-146 152 -447 303 -727 364 -79 18 -134 22 -275 23
l-176 1 12 36 c102 287 447 602 836 760 82 33 261 88 290 89 20 0 35 -13 68
-57z m426 21 c151 -56 478 -125 669 -140 l78 -6 -103 -43 c-57 -24 -159 -68
-226 -98 -142 -65 -216 -89 -248 -81 -16 4 -40 38 -85 122 -34 64 -85 149
-111 189 -46 68 -54 83 -45 83 2 0 34 -11 71 -26z m1996 -54 c-9 -23 -10 -23
-10 12 -1 20 2 45 7 55 6 14 8 12 10 -12 2 -17 -1 -42 -7 -55z m-411 61 c-56
-33 -325 -92 -408 -90 -42 1 -40 2 23 10 83 11 280 54 332 74 45 16 77 20 53
6z m437 -48 c-3 -10 -5 -4 -5 12 0 17 2 24 5 18 2 -7 2 -21 0 -30z m123 -5 c0
-6 -6 -5 -15 2 -8 7 -15 14 -15 16 0 2 7 1 15 -2 8 -4 15 -11 15 -16z m-2300
-30 c0 -6 -7 -5 -15 2 -8 7 -15 17 -15 22 0 6 7 5 15 -2 8 -7 15 -17 15 -22z
m-70 -18 c0 -5 -4 -10 -10 -10 -5 0 -10 5 -10 10 0 6 5 10 10 10 6 0 10 -4 10
-10z m2440 -20 c0 -5 -2 -10 -4 -10 -3 0 -8 5 -11 10 -3 6 -1 10 4 10 6 0 11
-4 11 -10z m-2433 -32 c-3 -7 -5 -2 -5 12 0 14 2 19 5 13 2 -7 2 -19 0 -25z
m2160 10 c-3 -8 -6 -5 -6 6 -1 11 2 17 5 13 3 -3 4 -12 1 -19z m307 -14 c4
-10 1 -14 -6 -12 -15 5 -23 28 -10 28 5 0 13 -7 16 -16z m-2377 -26 c-3 -7 -5
-2 -5 12 0 14 2 19 5 13 2 -7 2 -19 0 -25z m2123 2 c0 -5 -2 -10 -4 -10 -3 0
-8 5 -11 10 -3 6 -1 10 4 10 6 0 11 -4 11 -10z m-2105 -29 c3 -5 1 -12 -5 -16
-5 -3 -10 1 -10 9 0 18 6 21 15 7z m32 -13 c-3 -8 -6 -5 -6 6 -1 11 2 17 5 13
3 -3 4 -12 1 -19z m2011 -20 c19 -22 9 -24 -12 -2 -9 8 -16 23 -15 32 0 14 2
14 6 2 3 -8 12 -23 21 -32z m9 20 c-3 -8 -6 -5 -6 6 -1 11 2 17 5 13 3 -3 4
-12 1 -19z m337 -14 c3 -8 2 -12 -4 -9 -6 3 -10 10 -10 16 0 14 7 11 14 -7z
m-1100 -18 c-8 -20 -34 -29 -34 -11 0 7 -8 16 -17 18 -10 3 -1 5 19 6 29 1 36
-2 32 -13z m-1344 -11 c0 -8 -4 -15 -10 -15 -5 0 -10 7 -10 15 0 8 5 15 10 15
6 0 10 -7 10 -15z m1423 -20 c1 -5 -6 -11 -15 -13 -11 -2 -18 3 -18 13 0 17
30 18 33 0z m-1418 -71 l-15 -39 7 40 c6 44 15 65 20 49 2 -6 -3 -28 -12 -50z
m1144 30 c2 -2 -19 -4 -47 -4 -28 0 -53 4 -57 10 -5 8 94 3 104 -6z m416 6 c3
-5 2 -10 -4 -10 -5 0 -13 5 -16 10 -3 6 -2 10 4 10 5 0 13 -4 16 -10z m500 0
c3 -5 1 -10 -4 -10 -6 0 -11 5 -11 10 0 6 2 10 4 10 3 0 8 -4 11 -10z m-1153
-19 c-14 -11 -31 -16 -47 -13 -37 7 -30 20 13 25 20 2 41 4 46 5 5 1 -1 -6
-12 -17z m668 -11 c0 -15 -36 -30 -74 -30 -20 0 -36 5 -36 10 0 6 18 10 40 10
22 0 40 5 40 10 0 6 7 10 15 10 8 0 15 -4 15 -10z m960 -31 c0 -5 -4 -9 -10
-9 -5 0 -10 7 -10 16 0 8 5 12 10 9 6 -3 10 -10 10 -16z m-1836 -4 c-4 -8 -1
-15 7 -15 7 0 10 -2 7 -5 -3 -3 -13 -3 -22 1 -13 5 -14 9 -5 20 15 18 20 18
13 -1z m986 -7 c10 -6 6 -7 -15 -3 -16 3 -35 6 -42 7 -7 1 -10 5 -7 10 6 9 39
2 64 -14z m-1673 -10 c-3 -8 -6 -5 -6 6 -1 11 2 17 5 13 3 -3 4 -12 1 -19z
m788 12 c-3 -5 -13 -10 -21 -10 -8 0 -12 5 -9 10 3 6 13 10 21 10 8 0 12 -4 9
-10z m942 -6 c-3 -3 -12 -4 -19 -1 -8 3 -5 6 6 6 11 1 17 -2 13 -5z m-1077
-21 c0 -10 -4 -14 -8 -8 -4 6 -11 13 -16 18 -5 4 -2 7 7 7 10 0 17 -8 17 -17z
m-80 -53 c0 -5 -5 -10 -11 -10 -5 0 -7 5 -4 10 3 6 8 10 11 10 2 0 4 -4 4 -10z
m-480 -35 c0 -8 -4 -15 -10 -15 -5 0 -10 7 -10 15 0 8 5 15 10 15 6 0 10 -7
10 -15z m2510 11 c0 -2 -7 -9 -15 -16 -13 -11 -14 -10 -9 4 5 14 24 23 24 12z
m-2126 -12 c20 -8 11 -24 -15 -24 -19 0 -25 11 -12 23 8 8 8 8 27 1z m2146
-29 c0 -8 -4 -15 -10 -15 -5 0 -10 7 -10 15 0 8 5 15 10 15 6 0 10 -7 10 -15z
m-2213 -1 c-3 -3 -12 -4 -19 -1 -8 3 -5 6 6 6 11 1 17 -2 13 -5z m2173 -19 c0
-8 -4 -15 -10 -15 -5 0 -7 7 -4 15 4 8 8 15 10 15 2 0 4 -7 4 -15z m47 -11
c-3 -3 -12 -4 -19 -1 -8 3 -5 6 6 6 11 1 17 -2 13 -5z m63 -34 c0 -5 -2 -10
-4 -10 -3 0 -8 5 -11 10 -3 6 -1 10 4 10 6 0 11 -4 11 -10z m-2633 -72 c-3 -8
-6 -5 -6 6 -1 11 2 17 5 13 3 -3 4 -12 1 -19z m2613 -3 c7 -9 8 -15 2 -15 -5
0 -12 7 -16 15 -3 8 -4 15 -2 15 2 0 9 -7 16 -15z m-2588 -40 c3 -13 1 -22 -3
-19 -9 5 -13 44 -5 44 2 0 6 -11 8 -25z m2678 5 c0 -5 -4 -10 -10 -10 -5 0
-10 5 -10 10 0 6 5 10 10 10 6 0 10 -4 10 -10z m-1200 -30 c0 -5 -7 -10 -16
-10 -8 0 -12 5 -9 10 3 6 10 10 16 10 5 0 9 -4 9 -10z m258 3 c-10 -2 -26 -2
-35 0 -10 3 -2 5 17 5 19 0 27 -2 18 -5z m142 -2 c0 -5 -7 -12 -16 -15 -9 -3
-14 -12 -11 -19 3 -9 -5 -11 -32 -8 -32 5 -33 6 -8 9 15 2 32 12 37 23 11 19
30 26 30 10z m50 -1 c0 -5 -2 -10 -4 -10 -3 0 -8 5 -11 10 -3 6 -1 10 4 10 6
0 11 -4 11 -10z m-745 -10 c-3 -5 -10 -10 -16 -10 -5 0 -9 5 -9 10 0 6 7 10
16 10 8 0 12 -4 9 -10z m73 3 c-10 -2 -26 -2 -35 0 -10 3 -2 5 17 5 19 0 27
-2 18 -5z m385 0 c-7 -2 -19 -2 -25 0 -7 3 -2 5 12 5 14 0 19 -2 13 -5z m-493
-17 c0 -3 -4 -8 -10 -11 -5 -3 -10 -1 -10 4 0 6 5 11 10 11 6 0 10 -2 10 -4z
m617 -2 c-3 -3 -12 -4 -19 -1 -8 3 -5 6 6 6 11 1 17 -2 13 -5z m138 -4 c-3 -5
-10 -10 -16 -10 -5 0 -9 5 -9 10 0 6 7 10 16 10 8 0 12 -4 9 -10z m1287 -52
c44 -54 221 -321 210 -316 -18 7 -451 333 -452 340 0 4 44 9 98 11 53 1 100 4
103 5 4 1 22 -17 41 -40z m-3162 -28 c0 -22 -4 -40 -9 -40 -4 0 -13 -19 -18
-42 -10 -40 -11 -41 -12 -11 -1 40 20 133 31 133 4 0 8 -18 8 -40z m2825 12
c-3 -3 -11 0 -18 7 -9 10 -8 11 6 5 10 -3 15 -9 12 -12z m-38 -14 c-3 -8 -6
-5 -6 6 -1 11 2 17 5 13 3 -3 4 -12 1 -19z m-2850 -30 c-3 -8 -6 -5 -6 6 -1
11 2 17 5 13 3 -3 4 -12 1 -19z m1553 2 c0 -5 -4 -10 -9 -10 -6 0 -13 5 -16
10 -3 6 1 10 9 10 9 0 16 -4 16 -10z m1345 0 c8 -13 -5 -13 -25 0 -13 8 -13
10 2 10 9 0 20 -4 23 -10z m-1145 -20 c12 -8 11 -10 -7 -10 -13 0 -23 5 -23
10 0 13 11 13 30 0z m-2827 -55 c143 -32 216 -59 372 -137 171 -85 163 -76
123 -135 -131 -186 -181 -268 -336 -558 -155 -289 -225 -470 -259 -661 -19
-112 -25 -508 -9 -675 9 -94 8 -97 -14 -109 -19 -10 -29 -7 -74 24 -75 52 -75
51 -120 -39 -8 -16 -19 -82 -25 -145 -27 -273 -57 -343 -139 -324 -87 21 -126
139 -120 367 2 105 0 129 -12 137 -41 26 -54 -4 -58 -145 -5 -138 15 -263 51
-327 11 -21 18 -40 16 -43 -3 -2 -32 8 -65 24 -112 53 -149 135 -149 335 0
111 -2 130 -17 140 -14 8 -22 7 -35 -7 -15 -15 -18 -37 -18 -142 0 -69 -1
-125 -3 -125 -9 0 -72 154 -88 215 -23 86 -26 352 -5 515 67 546 218 1103 389
1435 65 125 152 268 210 344 l56 74 106 -6 c58 -3 158 -17 223 -32z m2882 15
c-3 -5 -10 -10 -16 -10 -5 0 -9 5 -9 10 0 6 7 10 16 10 8 0 12 -4 9 -10z
m1220 -20 c3 -5 1 -10 -4 -10 -6 0 -11 5 -11 10 0 6 2 10 4 10 3 0 8 -4 11
-10z m-47 -16 c17 -5 22 -14 22 -41 0 -30 -3 -34 -22 -31 -15 2 -23 10 -23 23
0 13 -6 20 -17 19 -11 -1 -18 5 -18 17 0 20 17 24 58 13z m148 -25 c4 -7 -1
-16 -11 -21 -14 -8 -15 -12 -4 -19 10 -6 8 -9 -8 -9 -13 0 -23 4 -23 9 0 6 10
17 23 27 20 15 21 16 2 12 -15 -4 -21 0 -21 13 0 13 4 15 18 8 9 -5 20 -14 24
-20z m-3116 -10 c0 -6 -8 -18 -17 -27 -16 -16 -16 -16 -10 1 4 10 7 23 7 28 0
5 5 9 10 9 6 0 10 -5 10 -11z m1895 0 c11 -17 -27 -40 -43 -26 -11 9 -11 13 4
24 22 16 31 16 39 2z m1290 -58 c-6 -20 18 -46 35 -36 5 3 10 2 10 -4 0 -22
-24 -23 -41 -3 -22 27 -33 28 -26 2 3 -11 1 -20 -4 -20 -14 0 -11 33 7 58 19
27 27 28 19 3z m-3237 -165 c-2 -35 -6 -42 -16 -33 -9 7 -10 13 -2 21 5 5 10
20 10 33 0 13 2 23 5 23 3 0 4 -20 3 -44z m-377 -46 c32 -33 59 -67 59 -76 0
-28 -288 -149 -308 -130 -2 3 22 42 54 88 32 46 71 104 88 130 17 26 35 47 40
47 4 1 35 -26 67 -59z m3839 10 c0 -5 -4 -10 -10 -10 -5 0 -10 5 -10 10 0 6 5
10 10 10 6 0 10 -4 10 -10z m108 -52 c8 -10 4 -13 -13 -14 -19 -2 -21 1 -12
12 15 16 13 16 25 2z m-3612 -25 c-10 -10 -19 5 -10 18 6 11 8 11 12 0 2 -7 1
-15 -2 -18z m1410 -25 c-9 -5 -33 -7 -54 -5 l-37 4 43 1 c23 1 42 7 42 13 0 5
5 7 11 3 8 -5 6 -10 -5 -16z m697 5 c-13 -2 -33 -2 -45 0 -13 2 -3 4 22 4 25
0 35 -2 23 -4z m1544 -60 c-3 -10 -5 -2 -5 17 0 19 2 27 5 18 2 -10 2 -26 0
-35z m-1064 30 c-13 -2 -33 -2 -45 0 -13 2 -3 4 22 4 25 0 35 -2 23 -4z m1102
-2 c3 -5 1 -12 -5 -16 -5 -3 -10 1 -10 9 0 18 6 21 15 7z m-3730 -11 c3 -5 -1
-10 -10 -10 -11 0 -15 -5 -11 -15 3 -8 1 -15 -3 -15 -15 0 -20 27 -8 39 14 14
24 14 32 1z m2788 -17 c-13 -2 -33 -2 -45 0 -13 2 -3 4 22 4 25 0 35 -2 23 -4z
m964 -15 c-3 -8 -6 -5 -6 6 -1 11 2 17 5 13 3 -3 4 -12 1 -19z m-40 -17 c-12
-1 -25 -8 -28 -13 -4 -6 -12 -9 -20 -6 -7 2 2 13 22 24 23 14 36 17 41 10 5
-7 -1 -12 -15 -15z m-2750 3 c-3 -3 -12 -4 -19 -1 -8 3 -5 6 6 6 11 1 17 -2
13 -5z m676 -1 c-7 -2 -19 -2 -25 0 -7 3 -2 5 12 5 14 0 19 -2 13 -5z m702 -3
c3 -5 1 -10 -4 -10 -6 0 -11 5 -11 10 0 6 2 10 4 10 3 0 8 -4 11 -10z m1018 3
c-7 -2 -21 -2 -30 0 -10 3 -4 5 12 5 17 0 24 -2 18 -5z m-2448 -13 c-3 -5 -10
-10 -16 -10 -5 0 -9 5 -9 10 0 6 7 10 16 10 8 0 12 -4 9 -10z m1492 4 c-3 -3
-12 -4 -19 -1 -8 3 -5 6 6 6 11 1 17 -2 13 -5z m93 -4 c11 -8 7 -9 -15 -4 -37
8 -45 14 -19 14 10 0 26 -5 34 -10z m1060 6 c0 -9 -40 -13 -46 -5 -3 5 6 9 20
9 14 0 26 -2 26 -4z m54 -11 c-7 -16 -24 -21 -24 -6 0 8 7 13 27 20 1 1 0 -6
-3 -14z m-2499 -5 c14 -7 8 -8 -20 -3 -22 3 -42 7 -44 9 -9 8 45 2 64 -6z
m415 -2 c0 -4 -18 -8 -40 -8 -22 0 -40 5 -40 10 0 6 17 10 40 8 22 -1 40 -6
40 -10z m1917 6 c-3 -3 -12 -4 -19 -1 -8 3 -5 6 6 6 11 1 17 -2 13 -5z m-2174
-11 c-13 -2 -33 -2 -45 0 -13 2 -3 4 22 4 25 0 35 -2 23 -4z m1100 0 c-7 -2
-19 -2 -25 0 -7 3 -2 5 12 5 14 0 19 -2 13 -5z m1194 -9 c-3 -3 -12 -4 -19 -1
-8 3 -5 6 6 6 11 1 17 -2 13 -5z m223 2 c0 -3 -4 -8 -10 -11 -5 -3 -10 -1 -10
4 0 6 5 11 10 11 6 0 10 -2 10 -4z m-2827 -13 c-7 -2 -19 -2 -25 0 -7 3 -2 5
12 5 14 0 19 -2 13 -5z m700 0 c-18 -2 -48 -2 -65 0 -18 2 -4 4 32 4 36 0 50
-2 33 -4z m467 -3 c-20 -13 -40 -13 -40 0 0 6 12 10 28 10 21 0 24 -2 12 -10z
m1698 -6 c15 -15 14 -16 -6 -10 -14 5 -22 3 -22 -4 0 -6 -4 -8 -10 -5 -6 4 -5
11 3 20 15 18 15 18 35 -1z m-91 -20 c-3 -3 -12 -4 -19 -1 -8 3 -5 6 6 6 11 1
17 -2 13 -5z m-3000 -10 c-3 -3 -12 -4 -19 -1 -8 3 -5 6 6 6 11 1 17 -2 13 -5z
m3123 -4 c0 -5 -7 -10 -15 -10 -8 0 -15 5 -15 10 0 6 7 10 15 10 8 0 15 -4 15
-10z m-4030 -50 c0 -5 -7 -10 -16 -10 -8 0 -12 5 -9 10 3 6 10 10 16 10 5 0 9
-4 9 -10z m550 -20 c16 -10 15 -12 -22 -28 -16 -6 -28 -8 -28 -3 0 5 8 12 18
16 16 7 15 8 -3 15 l-20 9 20 0 c11 0 27 -3 35 -9z m-633 -66 c-3 -3 -12 -4
-19 -1 -8 3 -5 6 6 6 11 1 17 -2 13 -5z m517 -19 c-10 -8 -23 -14 -29 -14 -5
0 -1 6 9 14 11 8 24 15 30 15 5 0 1 -7 -10 -15z m-54 -20 c0 -2 -9 -9 -20 -15
-12 -6 -20 -7 -20 -1 0 5 8 12 18 14 9 3 18 5 20 6 1 0 2 -1 2 -4z m0 -45 c-8
-5 -19 -10 -25 -10 -5 0 -3 5 5 10 8 5 20 10 25 10 6 0 3 -5 -5 -10z m-529
-84 c5 -6 9 -19 8 -30 0 -15 -2 -17 -6 -6 -4 8 -12 21 -20 29 -8 7 -12 20 -9
28 3 8 7 22 7 31 1 9 4 4 6 -13 3 -16 9 -34 14 -39z m343 -22 c3 -8 2 -12 -4
-9 -6 3 -10 10 -10 16 0 14 7 11 14 -7z m-154 -68 c0 -3 -4 -8 -10 -11 -5 -3
-10 -1 -10 4 0 6 5 11 10 11 6 0 10 -2 10 -4z m0 -110 c0 -3 -4 -8 -10 -11 -5
-3 -10 -1 -10 4 0 6 5 11 10 11 6 0 10 -2 10 -4z m1657 -372 c-3 -3 -12 -4
-19 -1 -8 3 -5 6 6 6 11 1 17 -2 13 -5z m-182 -30 c-75 -17 -103 -16 -50 1 22
8 56 13 75 13 28 0 23 -3 -25 -14z m2810 -10 l100 -18 106 -105 c107 -107 183
-210 245 -332 111 -221 179 -455 220 -759 36 -256 18 -723 -37 -988 -21 -102
-21 -103 -84 -131 -107 -48 -168 -56 -415 -55 -129 1 -267 6 -307 12 -82 14
-284 80 -346 114 l-42 23 -6 275 c-4 151 -12 302 -18 335 -6 33 -19 94 -27
135 -65 313 -211 596 -409 795 -88 88 -226 190 -272 201 -29 8 -29 7 3 63 62
106 200 237 337 319 110 66 329 125 502 136 123 8 352 -2 450 -20z m-2908 -10
c-3 -3 -12 -4 -19 -1 -8 3 -5 6 6 6 11 1 17 -2 13 -5z m-40 -10 c-3 -3 -12 -4
-19 -1 -8 3 -5 6 6 6 11 1 17 -2 13 -5z m888 -11 c33 -18 111 -179 144 -298
36 -127 84 -368 106 -529 20 -147 38 -482 31 -576 -3 -41 -8 -127 -11 -190 -3
-63 -10 -212 -15 -330 -5 -118 -13 -249 -17 -290 -3 -41 -7 -88 -7 -104 -1
-38 -44 -61 -152 -82 -296 -57 -826 6 -996 120 l-48 31 0 175 c0 230 -16 505
-35 616 -25 142 -127 459 -185 574 -54 108 -192 308 -245 355 -12 11 -43 46
-69 79 -55 67 -55 64 44 141 194 148 501 260 850 311 115 16 573 14 605 -3z
m-968 -9 c-3 -3 -12 -4 -19 -1 -8 3 -5 6 6 6 11 1 17 -2 13 -5z m-82 -24 c-27
-12 -43 -12 -25 0 8 5 22 9 30 9 10 0 8 -3 -5 -9z m-455 -234 c-14 -13 -27
-21 -30 -19 -5 5 38 43 48 43 4 0 -5 -11 -18 -24z m2908 -1524 c1 -86 0 -178
-4 -203 l-6 -47 -55 -11 c-63 -12 -134 -50 -158 -83 -14 -21 -15 0 -15 240 l0
262 118 0 117 0 3 -158z"/>
<path d="M5938 6703 c-40 -44 -48 -116 -23 -199 23 -78 77 -97 119 -41 29 40
30 167 1 217 -25 42 -71 52 -97 23z"/>
<path d="M4747 6649 c-32 -19 -50 -70 -51 -144 0 -76 19 -126 55 -145 78 -42
121 208 48 281 -22 22 -27 22 -52 8z"/>
<path d="M5432 6379 c-36 -13 -21 -34 24 -34 27 0 39 4 39 14 0 19 -35 30 -63
20z"/>
<path d="M6306 6225 c-8 -22 1 -35 25 -35 15 0 20 6 17 22 -4 27 -33 36 -42
13z"/>
<path d="M5697 6063 c-4 -3 -7 -16 -7 -28 0 -18 -13 -27 -62 -48 -88 -36 -96
-38 -227 -51 -106 -10 -116 -13 -116 -31 0 -19 6 -20 110 -19 117 1 226 25
292 65 25 16 37 18 52 10 33 -18 51 -13 51 14 0 14 -4 25 -9 25 -5 0 -18 16
-30 35 -19 33 -39 43 -54 28z"/>
</g>
</svg>
